<svg width="807" height="359" viewBox="0 0 807 359" fill="none" xmlns="http://www.w3.org/2000/svg">
<path d="M54.7134 327.626C16.8324 290.471 1.43662 260.485 2.01571 238.491C2.59479 216.496 9.54397 206.078 23.4423 195.081C37.3405 184.083 74.9818 180.032 91.1965 188.135C107.411 196.238 116.677 204.58 116.677 220.207C116.677 235.835 102.778 248.33 91.1965 252.961C79.6146 257.591 62.8208 255.276 54.7134 252.961C46.6061 250.645 39.657 246.594 33.866 238.491C28.075 230.387 29.8123 220.548 38.4988 210.129C47.1852 199.711 80.7728 194.502 97.5665 210.129C114.36 225.757 116.677 234.439 116.677 250.645C116.677 266.852 81.3518 310.841 74.9818 318.365C68.6118 325.89 55.8717 336.308 54.7134 342.096C53.5552 347.884 54.7134 351.936 59.3462 354.83C63.979 357.724 70.349 357.724 74.9818 354.83C79.6146 351.936 81.3518 346.726 79.6146 342.096C77.8773 337.466 72.0863 335.15 68.6117 336.887C65.1372 338.623 63.3999 341.517 64.5581 346.148C65.7163 350.778 72.7792 353.731 85.9846 354.83C99.19 355.928 401.576 356.804 426.477 354.489C451.378 352.174 461.239 344.99 464.713 342.096C468.188 339.202 476.295 324.153 457.185 311.42C438.075 298.686 315.307 284.795 279.403 270.325C243.499 255.855 262.014 222.523 275.333 215.577C288.653 208.631 296.181 205.159 421.86 210.129C547.54 215.1 748.455 208.053 775.672 204.001C802.89 199.949 806.364 190.689 804.627 182.585C802.89 174.482 794.782 164.064 771.039 159.433C747.297 154.803 689.403 152.249 678.979 151.092C668.555 149.934 659.29 148.198 653.499 145.304C647.708 142.41 645.97 138.937 647.129 135.464C648.287 131.992 651.182 130.834 655.236 132.57C659.29 134.307 661.606 138.358 659.869 141.831C658.131 145.304 650.603 147.04 644.233 145.304C637.863 143.568 637.284 140.095 638.442 135.464C639.6 130.834 676.662 105.367 685.333 87.6623C694.004 69.9578 694.02 65.6679 692.282 55.8283C690.545 45.9887 685.912 37.4082 676.647 28.9649C667.381 20.5216 642.48 14.1548 632.636 21.6792C622.791 29.2036 617.579 41.3584 622.791 52.9343C628.003 64.5103 657.752 67.9686 676.647 55.8283C684.754 50.6191 691.14 39.3833 689.982 28.9649C688.824 18.5465 678.585 10.5062 669.134 6.39212C649.9 0.467798 636.126 0.604524 621.648 6.39212C607.171 12.1797 588.061 33.5953 593.852 62.5357C599.643 91.476 617.366 107.133 634.968 122.152" stroke="#1E1E1E" stroke-width="3"/>
</svg>
